<svg width="147" height="35" viewBox="0 0 147 35" fill="none" xmlns="http://www.w3.org/2000/svg">
<path d="M20 18.5C20 19.61 19.11 20.5 18 20.5H2C1.46957 20.5 0.960859 20.2893 0.585786 19.9142C0.210714 19.5391 0 19.0304 0 18.5C0 17.9696 0.210714 17.4609 0.585786 17.0858C0.960859 16.7107 1.46957 16.5 2 16.5H11L13.5 18.5L16 16.5H18C18.5304 16.5 19.0391 16.7107 19.4142 17.0858C19.7893 17.4609 20 17.9696 20 18.5ZM10 8.5C1 8.5 1 14.5 1 14.5H19C19 14.5 19 8.5 10 8.5ZM1 23.5C1 25.16 2.34 26.5 4 26.5H16C17.66 26.5 19 25.16 19 23.5V22.5H1V23.5Z" fill="white"/>
<path d="M37.184 28V10.24H48.128V13.192H40.736V17.848H47.048V20.8H40.736V28H37.184ZM55.9651 28.336C52.5811 28.336 49.5091 25.744 49.5091 21.304C49.5091 16.84 52.5811 14.248 55.9651 14.248C59.3251 14.248 62.3971 16.84 62.3971 21.304C62.3971 25.744 59.3251 28.336 55.9651 28.336ZM55.9651 25.48C57.7891 25.48 58.7971 23.824 58.7971 21.304C58.7971 18.76 57.7891 17.128 55.9651 17.128C54.1171 17.128 53.1091 18.76 53.1091 21.304C53.1091 23.824 54.1171 25.48 55.9651 25.48ZM70.9886 28.336C67.6046 28.336 64.5326 25.744 64.5326 21.304C64.5326 16.84 67.6046 14.248 70.9886 14.248C74.3486 14.248 77.4206 16.84 77.4206 21.304C77.4206 25.744 74.3486 28.336 70.9886 28.336ZM70.9886 25.48C72.8126 25.48 73.8206 23.824 73.8206 21.304C73.8206 18.76 72.8126 17.128 70.9886 17.128C69.1406 17.128 68.1326 18.76 68.1326 21.304C68.1326 23.824 69.1406 25.48 70.9886 25.48ZM85.124 28.336C81.764 28.336 79.604 25.72 79.604 21.304C79.604 16.912 82.364 14.248 85.244 14.248C86.756 14.248 87.692 14.8 88.676 15.688L88.532 13.576V8.872H92.06V28H89.18L88.916 26.608H88.844C87.86 27.592 86.516 28.336 85.124 28.336ZM86.012 25.432C86.972 25.432 87.764 25.048 88.532 24.064V18.16C87.74 17.416 86.876 17.128 86.036 17.128C84.524 17.128 83.228 18.568 83.228 21.256C83.228 24.064 84.26 25.432 86.012 25.432ZM109.199 28.336C104.375 28.336 100.679 25.12 100.679 19.192C100.679 13.336 104.471 9.928 109.199 9.928C111.743 9.928 113.519 11.032 114.671 12.184L112.799 14.464C111.911 13.624 110.903 12.976 109.319 12.976C106.343 12.976 104.303 15.28 104.303 19.072C104.303 22.96 106.079 25.264 109.559 25.264C110.423 25.264 111.287 25.024 111.791 24.616V21.112H108.623V18.208H114.959V26.2C113.759 27.4 111.647 28.336 109.199 28.336ZM118.77 28V10.24H124.602C128.514 10.24 131.538 11.608 131.538 15.832C131.538 19.888 128.514 21.688 124.698 21.688H122.322V28H118.77ZM122.322 18.88H124.458C126.906 18.88 128.082 17.848 128.082 15.832C128.082 13.744 126.786 13.072 124.338 13.072H122.322V18.88ZM137.696 28V13.192H132.68V10.24H146.264V13.192H141.248V28H137.696Z" fill="white"/>
</svg>
